<svg width="18.000000" height="18.000000" viewBox="0 0 18 18" fill="none" xmlns="http://www.w3.org/2000/svg" xmlns:xlink="http://www.w3.org/1999/xlink">
	<desc>
			Created with Pixso.
	</desc>
	<defs/>
	<path d="M5.41772 8.09964C5.23999 8.09964 5.06616 8.15244 4.91846 8.25131C4.77063 8.35019 4.6554 8.49075 4.5874 8.65521C4.51941 8.81964 4.50159 9.00061 4.53625 9.17517C4.57092 9.34976 4.65649 9.5101 4.78223 9.63596C4.90796 9.76184 5.06812 9.84753 5.24243 9.88226C5.41675 9.91699 5.59741 9.89917 5.76172 9.83105C5.9259 9.76294 6.06628 9.64758 6.16504 9.4996C6.26379 9.35159 6.31641 9.17761 6.31641 8.9996C6.31641 8.76093 6.2218 8.53201 6.05322 8.36322C5.88464 8.19446 5.65613 8.09964 5.41772 8.09964ZM9.0127 8.09964C8.83496 8.09964 8.66113 8.15244 8.51331 8.25131C8.3656 8.35019 8.25037 8.49075 8.18237 8.65521C8.11438 8.81964 8.09656 9.00061 8.13123 9.17517C8.16589 9.34976 8.25146 9.5101 8.3772 9.63596C8.50281 9.76184 8.66296 9.84753 8.83728 9.88226C9.01172 9.91699 9.19238 9.89917 9.35657 9.83105C9.52087 9.76294 9.66113 9.64758 9.75989 9.4996C9.85864 9.35159 9.91138 9.17761 9.91138 8.9996C9.91138 8.76093 9.81665 8.53201 9.64819 8.36322C9.47961 8.19446 9.25098 8.09964 9.0127 8.09964ZM12.6075 8.09964C12.4298 8.09964 12.2561 8.15244 12.1083 8.25131C11.9604 8.35019 11.8453 8.49075 11.7772 8.65521C11.7092 8.81964 11.6914 9.00061 11.7261 9.17517C11.7609 9.34976 11.8464 9.5101 11.972 9.63596C12.0978 9.76184 12.2579 9.84753 12.4323 9.88226C12.6066 9.91699 12.7874 9.89917 12.9515 9.83105C13.1157 9.76294 13.2561 9.64758 13.3549 9.4996C13.4536 9.35159 13.5063 9.17761 13.5063 8.9996C13.5063 8.76093 13.4116 8.53201 13.243 8.36322C13.0746 8.19446 12.8459 8.09964 12.6075 8.09964ZM9.0127 0C7.8324 0 6.6637 0.232788 5.57336 0.685059C4.48291 1.13733 3.49219 1.80023 2.65771 2.63593C0.972168 4.32367 0.0253906 6.61276 0.0253906 8.9996C0.0174561 11.0777 0.736084 13.0931 2.05652 14.6964L0.259033 16.4963C0.134277 16.6228 0.0498047 16.7835 0.0162354 16.9581C-0.017334 17.1327 0.00146484 17.3133 0.0703125 17.4772C0.144897 17.6392 0.265869 17.7752 0.417969 17.8682C0.569946 17.9611 0.746094 18.0067 0.924072 17.9992L9.0127 17.9992C11.3962 17.9992 13.6823 17.051 15.3677 15.3633C17.0531 13.6755 18 11.3864 18 8.9996C18 6.61276 17.0531 4.32367 15.3677 2.63593C13.6823 0.948181 11.3962 0 9.0127 0ZM9.0127 16.1993L3.08997 16.1993L3.92578 15.3623C4.09326 15.1937 4.18713 14.9656 4.18713 14.7278C4.18713 14.4901 4.09326 14.262 3.92578 14.0934C2.74902 12.9163 2.01624 11.367 1.85217 9.70947C1.68823 8.052 2.10315 6.38882 3.02637 5.00336C3.94971 3.61789 5.3241 2.59579 6.91553 2.11127C8.50684 1.62677 10.2168 1.70975 11.754 2.34613C13.2911 2.98248 14.5604 4.13287 15.3456 5.60126C16.1306 7.06964 16.3831 8.7652 16.0597 10.399C15.7365 12.0329 14.8574 13.5039 13.5724 14.5616C12.2875 15.6192 10.676 16.198 9.0127 16.1993Z" fill-rule="nonzero" fill="#94A3BD"/>
</svg>
