<svg width="22.213989" height="22.604736" viewBox="0 0 22.214 22.6047" fill="none" xmlns="http://www.w3.org/2000/svg" xmlns:xlink="http://www.w3.org/1999/xlink">
	<desc>
			Created with Pixso.
	</desc>
	<defs/>
	<path d="M0.5 11.0808C0.499878 13.0626 1.03406 15.0078 2.04626 16.7116C3.05847 18.4154 4.51123 19.8149 6.25159 20.7627L6.25159 22.1047L15.8376 22.1047L15.8376 20.7627C17.5781 19.8149 19.0309 18.4154 20.0431 16.7116C21.0553 15.0078 21.5895 13.0626 21.5894 11.0808L21.5894 10.6015L0.5 10.6015L0.5 11.0808Z" stroke="#5051F9"/>
	<path d="M18.4319 6.22787L21.8109 1.62656" stroke="#5051F9"/>
	<path d="M17.2037 5.38907L18.3361 0.104767" stroke="#5051F9"/>
	<path d="M2.05774 10.6015C1.79126 9.30591 1.96118 7.95859 2.54077 6.76965C3.12036 5.58069 4.07703 4.61694 5.26172 4.02872C6.44641 3.44046 7.79248 3.2608 9.08997 3.5177C10.3875 3.77463 11.5635 4.4537 12.4346 5.44901" stroke="#5051F9"/>
	<path d="M4.03479 10.6015C3.76294 9.71909 3.79895 8.77051 4.13684 7.91122C4.47473 7.05194 5.09436 6.33292 5.89441 5.87198C6.69446 5.41104 7.62732 5.2355 8.54028 5.37421C9.45312 5.51288 10.2917 5.95752 10.9188 6.63525" stroke="#5051F9"/>
	<path d="M6.13782 10.6015C5.97168 10.3557 5.85815 10.0782 5.80408 9.78656C5.75012 9.49484 5.75684 9.19516 5.82397 8.90619C5.89099 8.61722 6.01697 8.34521 6.19397 8.10715C6.37097 7.86905 6.59521 7.67007 6.85254 7.52258C7.10999 7.37509 7.39502 7.28226 7.68994 7.24994C7.98474 7.21762 8.2832 7.24646 8.56641 7.33469C8.84961 7.42291 9.11157 7.5686 9.33594 7.76266C9.5603 7.95676 9.74219 8.19501 9.87036 8.46259" stroke="#5051F9"/>
	<path d="M16.2271 10.6015C16.3062 10.3842 16.3318 10.1512 16.3016 9.92194C16.2716 9.69269 16.1866 9.47412 16.0541 9.2847C15.9214 9.09531 15.7451 8.94064 15.54 8.83386C15.335 8.72711 15.1072 8.67136 14.876 8.67136C14.6448 8.67136 14.417 8.72711 14.2119 8.83386C14.007 8.94064 13.8306 9.09531 13.698 9.2847C13.5654 9.47412 13.4805 9.69269 13.4503 9.92194C13.4203 10.1512 13.4458 10.3842 13.525 10.6015" stroke="#5051F9"/>
	<path d="M18.1982 10.6015C18.2717 10.1234 18.241 9.6351 18.1082 9.17001C17.9752 8.70493 17.7433 8.27408 17.4283 7.90698C17.1134 7.53989 16.7228 7.24527 16.2833 7.04324C15.8438 6.84125 15.3658 6.73666 14.8821 6.73666C14.3984 6.73666 13.9204 6.84125 13.481 7.04324C13.0414 7.24527 12.6508 7.53989 12.3358 7.90698C12.0209 8.27408 11.7889 8.70493 11.6561 9.17001C11.5232 9.6351 11.4924 10.1234 11.5659 10.6015" stroke="#5051F9"/>
	<path d="M20.1274 10.6015C20.1394 10.4457 20.1514 10.2839 20.1514 10.1222C20.1514 8.72385 19.5958 7.38281 18.6072 6.39404C17.6184 5.4053 16.2773 4.84982 14.879 4.84982C13.4807 4.84982 12.1396 5.4053 11.1509 6.39404C10.1621 7.38281 9.60669 8.72385 9.60669 10.1222C9.60669 10.2839 9.61865 10.4457 9.63062 10.6015" stroke="#5051F9"/>
</svg>
