<svg width="66.000000" height="71.000000" viewBox="0 0 66 71" fill="none" xmlns="http://www.w3.org/2000/svg" xmlns:xlink="http://www.w3.org/1999/xlink">
	<desc>
			Created with Pixso.
	</desc>
	<defs/>
	<path d="M2.736 66.823C2.472 66.823 2.25 66.733 2.07 66.553C1.89 66.373 1.8 66.151 1.8 65.887L1.8 53.701C1.8 53.425 1.89 53.203 2.07 53.035C2.25 52.855 2.472 52.765 2.736 52.765C3.012 52.765 3.234 52.855 3.402 53.035C3.582 53.203 3.672 53.425 3.672 53.701L3.672 58.867L12.024 58.867L12.024 53.701C12.024 53.425 12.114 53.203 12.294 53.035C12.474 52.855 12.696 52.765 12.96 52.765C13.236 52.765 13.458 52.855 13.626 53.035C13.794 53.203 13.878 53.425 13.878 53.701L13.878 65.887C13.878 66.151 13.794 66.373 13.626 66.553C13.458 66.733 13.236 66.823 12.96 66.823C12.696 66.823 12.474 66.733 12.294 66.553C12.114 66.373 12.024 66.151 12.024 65.887L12.024 60.523L3.672 60.523L3.672 65.887C3.672 66.151 3.582 66.373 3.402 66.553C3.234 66.733 3.012 66.823 2.736 66.823ZM21.4037 66.895C20.5277 66.895 19.7417 66.679 19.0457 66.247C18.3497 65.803 17.7977 65.209 17.3897 64.465C16.9937 63.709 16.7957 62.857 16.7957 61.909C16.7957 60.961 17.0117 60.109 17.4437 59.353C17.8877 58.597 18.4817 58.003 19.2257 57.571C19.9817 57.127 20.8277 56.905 21.7637 56.905C22.6997 56.905 23.5397 57.127 24.2837 57.571C25.0277 58.003 25.6157 58.597 26.0477 59.353C26.4917 60.109 26.7137 60.961 26.7137 61.909L26.0117 61.909C26.0117 62.857 25.8077 63.709 25.3997 64.465C25.0037 65.209 24.4577 65.803 23.7617 66.247C23.0657 66.679 22.2797 66.895 21.4037 66.895ZM21.7637 65.275C22.3757 65.275 22.9217 65.131 23.4017 64.843C23.8817 64.543 24.2597 64.141 24.5357 63.637C24.8117 63.121 24.9497 62.545 24.9497 61.909C24.9497 61.261 24.8117 60.685 24.5357 60.181C24.2597 59.665 23.8817 59.263 23.4017 58.975C22.9217 58.675 22.3757 58.525 21.7637 58.525C21.1637 58.525 20.6177 58.675 20.1257 58.975C19.6457 59.263 19.2617 59.665 18.9737 60.181C18.6977 60.685 18.5597 61.261 18.5597 61.909C18.5597 62.545 18.6977 63.121 18.9737 63.637C19.2617 64.141 19.6457 64.543 20.1257 64.843C20.6177 65.131 21.1637 65.275 21.7637 65.275ZM25.7957 66.841C25.5317 66.841 25.3097 66.757 25.1297 66.589C24.9617 66.409 24.8777 66.187 24.8777 65.923L24.8777 63.169L25.2197 61.261L26.7137 61.909L26.7137 65.923C26.7137 66.187 26.6237 66.409 26.4437 66.589C26.2757 66.757 26.0597 66.841 25.7957 66.841ZM34.3962 66.895C33.4602 66.895 32.6202 66.679 31.8762 66.247C31.1322 65.803 30.5442 65.203 30.1122 64.447C29.6802 63.691 29.4582 62.839 29.4462 61.891L29.4462 53.683C29.4462 53.407 29.5302 53.185 29.6982 53.017C29.8782 52.849 30.1002 52.765 30.3642 52.765C30.6402 52.765 30.8622 52.849 31.0302 53.017C31.1982 53.185 31.2822 53.407 31.2822 53.683L31.2822 58.543C31.7022 58.039 32.2062 57.643 32.7942 57.355C33.3942 57.055 34.0482 56.905 34.7562 56.905C35.6322 56.905 36.4182 57.127 37.1142 57.571C37.8102 58.003 38.3562 58.597 38.7522 59.353C39.1602 60.097 39.3642 60.943 39.3642 61.891C39.3642 62.839 39.1422 63.691 38.6982 64.447C38.2662 65.203 37.6782 65.803 36.9342 66.247C36.1902 66.679 35.3442 66.895 34.3962 66.895ZM34.3962 65.275C35.0082 65.275 35.5542 65.131 36.0342 64.843C36.5142 64.543 36.8922 64.135 37.1682 63.619C37.4562 63.103 37.6002 62.527 37.6002 61.891C37.6002 61.243 37.4562 60.667 37.1682 60.163C36.8922 59.659 36.5142 59.263 36.0342 58.975C35.5542 58.675 35.0082 58.525 34.3962 58.525C33.7962 58.525 33.2502 58.675 32.7582 58.975C32.2782 59.263 31.9002 59.659 31.6242 60.163C31.3482 60.667 31.2102 61.243 31.2102 61.891C31.2102 62.527 31.3482 63.103 31.6242 63.619C31.9002 64.135 32.2782 64.543 32.7582 64.843C33.2502 65.131 33.7962 65.275 34.3962 65.275ZM47.0524 66.895C46.1164 66.895 45.2764 66.679 44.5324 66.247C43.7884 65.803 43.2004 65.203 42.7684 64.447C42.3364 63.691 42.1144 62.839 42.1024 61.891L42.1024 53.683C42.1024 53.407 42.1864 53.185 42.3544 53.017C42.5344 52.849 42.7564 52.765 43.0204 52.765C43.2964 52.765 43.5184 52.849 43.6864 53.017C43.8544 53.185 43.9384 53.407 43.9384 53.683L43.9384 58.543C44.3584 58.039 44.8624 57.643 45.4504 57.355C46.0504 57.055 46.7044 56.905 47.4124 56.905C48.2884 56.905 49.0744 57.127 49.7704 57.571C50.4664 58.003 51.0124 58.597 51.4084 59.353C51.8164 60.097 52.0204 60.943 52.0204 61.891C52.0204 62.839 51.7984 63.691 51.3544 64.447C50.9224 65.203 50.3344 65.803 49.5904 66.247C48.8464 66.679 48.0004 66.895 47.0524 66.895ZM47.0524 65.275C47.6644 65.275 48.2104 65.131 48.6904 64.843C49.1704 64.543 49.5484 64.135 49.8244 63.619C50.1124 63.103 50.2564 62.527 50.2564 61.891C50.2564 61.243 50.1124 60.667 49.8244 60.163C49.5484 59.659 49.1704 59.263 48.6904 58.975C48.2104 58.675 47.6644 58.525 47.0524 58.525C46.4524 58.525 45.9064 58.675 45.4144 58.975C44.9344 59.263 44.5564 59.659 44.2804 60.163C44.0044 60.667 43.8664 61.243 43.8664 61.891C43.8664 62.527 44.0044 63.103 44.2804 63.619C44.5564 64.135 44.9344 64.543 45.4144 64.843C45.9064 65.131 46.4524 65.275 47.0524 65.275ZM55.8567 66.823C55.5927 66.823 55.3707 66.739 55.1907 66.571C55.0227 66.391 54.9387 66.169 54.9387 65.905L54.9387 57.895C54.9387 57.619 55.0227 57.397 55.1907 57.229C55.3707 57.061 55.5927 56.977 55.8567 56.977C56.1327 56.977 56.3547 57.061 56.5227 57.229C56.6907 57.397 56.7747 57.619 56.7747 57.895L56.7747 65.905C56.7747 66.169 56.6907 66.391 56.5227 66.571C56.3547 66.739 56.1327 66.823 55.8567 66.823ZM55.8567 55.375C55.5327 55.375 55.2507 55.261 55.0107 55.033C54.7827 54.793 54.6687 54.511 54.6687 54.187C54.6687 53.863 54.7827 53.587 55.0107 53.359C55.2507 53.119 55.5327 52.999 55.8567 52.999C56.1807 52.999 56.4567 53.119 56.6847 53.359C56.9247 53.587 57.0447 53.863 57.0447 54.187C57.0447 54.511 56.9247 54.793 56.6847 55.033C56.4567 55.261 56.1807 55.375 55.8567 55.375ZM63.7723 66.823C63.1723 66.823 62.6323 66.673 62.1523 66.373C61.6723 66.061 61.2943 65.641 61.0183 65.113C60.7423 64.585 60.6043 63.991 60.6043 63.331L60.6043 54.745C60.6043 54.481 60.6883 54.265 60.8563 54.097C61.0243 53.929 61.2403 53.845 61.5043 53.845C61.7683 53.845 61.9843 53.929 62.1523 54.097C62.3203 54.265 62.4043 54.481 62.4043 54.745L62.4043 63.331C62.4043 63.811 62.5363 64.213 62.8003 64.537C63.0643 64.861 63.3883 65.023 63.7723 65.023L64.3843 65.023C64.6003 65.023 64.7803 65.107 64.9243 65.275C65.0803 65.443 65.1583 65.659 65.1583 65.923C65.1583 66.187 65.0563 66.403 64.8523 66.571C64.6603 66.739 64.4083 66.823 64.0963 66.823L63.7723 66.823ZM59.7763 58.885C59.5243 58.885 59.3203 58.813 59.1643 58.669C59.0083 58.525 58.9303 58.345 58.9303 58.129C58.9303 57.889 59.0083 57.697 59.1643 57.553C59.3203 57.409 59.5243 57.337 59.7763 57.337L63.9343 57.337C64.1863 57.337 64.3903 57.409 64.5463 57.553C64.7023 57.697 64.7803 57.889 64.7803 58.129C64.7803 58.345 64.7023 58.525 64.5463 58.669C64.3903 58.813 64.1863 58.885 63.9343 58.885L59.7763 58.885Z" fill-rule="evenodd" fill="#000000"/>
	<path d="M24.2775 20.3182C25.0997 17.2499 28.2537 14.0961 31.3219 13.2738L50.4509 8.1474C53.5192 7.32513 55.34 9.14594 54.5177 12.2142L49.3914 31.3431C48.5691 34.4114 45.4152 37.5653 42.3469 38.3876L23.2179 43.514C20.1497 44.3362 18.3289 42.5155 19.1511 39.4472L24.2775 20.3182Z" fill-rule="nonzero" fill="#B8B8FF"/>
	<path d="M16.6088 12.6494C17.431 9.58105 20.585 6.42719 23.6532 5.60492L42.7822 0.478516C45.8505 -0.34375 47.6713 1.47705 46.849 4.54529L41.7227 23.6743C40.9004 26.7426 37.7465 29.8964 34.6782 30.7187L15.5492 35.8451C12.481 36.6674 10.6602 34.8466 11.4824 31.7783L16.6088 12.6494Z" fill-rule="nonzero" fill="#5051F9"/>
</svg>
