<svg width="25.000000" height="25.000000" viewBox="0 0 25 25" fill="none" xmlns="http://www.w3.org/2000/svg" xmlns:xlink="http://www.w3.org/1999/xlink">
	<desc>
			Created with Pixso.
	</desc>
	<defs>
		<clipPath id="clip4_126">
			<rect width="25.000000" height="25.000000" fill="white"/>
		</clipPath>
	</defs>
	<g clip-path="url(#clip4_126)">
		<path d="M13.6312 20.9229L4.07703 11.3688C3.80103 11.0927 3.42603 10.9375 3.0354 10.9375C2.22192 10.9375 1.5625 11.5969 1.5625 12.4104C1.5625 12.801 1.71765 13.176 1.99377 13.4521L11.5474 23.0057C11.8235 23.2818 12.1985 23.437 12.5891 23.437C13.4031 23.4375 14.0625 22.7781 14.0625 21.9646C14.0625 21.574 13.9073 21.199 13.6312 20.9229Z" stroke="#5051F9"/>
		<path d="M4.07703 15.5355C3.80103 15.2594 3.42603 15.1042 3.0354 15.1042C2.22192 15.1042 1.5625 15.7635 1.5625 16.5771C1.5625 16.9677 1.71765 17.3427 1.99377 17.6188L7.38074 23.0057C7.65674 23.2818 8.03174 23.437 8.42236 23.437C9.23645 23.4375 9.89587 22.7781 9.89587 21.9646C9.89587 21.574 9.7406 21.199 9.4646 20.9229" stroke="#5051F9"/>
		<path d="M3.64587 19.2708L2.08337 20.8333L4.16675 22.9167L5.72925 21.3541" stroke="#5051F9"/>
		<path d="M11.3688 4.07709L20.9224 13.6307C21.1985 13.9068 21.5735 14.062 21.9641 14.062C22.7781 14.0625 23.4375 13.4031 23.4375 12.5896C23.4375 12.199 23.2823 11.824 23.0062 11.5479L13.452 1.99377C13.176 1.71771 12.801 1.5625 12.4104 1.5625C11.5969 1.5625 10.9375 2.22186 10.9375 3.0354C10.9375 3.42603 11.0927 3.80103 11.3688 4.07709Z" stroke="#5051F9"/>
		<path d="M20.9229 9.4646C21.199 9.7406 21.574 9.89581 21.9646 9.89581C22.7781 9.89581 23.4375 9.23645 23.4375 8.42291C23.4375 8.03229 23.2822 7.65729 23.0062 7.38123L17.6187 1.99377C17.3427 1.71771 16.9677 1.5625 16.577 1.5625C15.7635 1.5625 15.1041 2.22186 15.1041 3.0354C15.1041 3.42603 15.2593 3.80103 15.5354 4.07709" stroke="#5051F9"/>
		<path d="M21.3542 5.72913L22.9167 4.16663L20.8334 2.08331L19.2709 3.64581" stroke="#5051F9"/>
		<path d="M7.8125 15.1042L15.1041 7.8125" stroke="#5051F9"/>
		<path d="M9.89587 17.1875L17.1875 9.89581" stroke="#5051F9"/>
	</g>
</svg>
