<svg width="25.000000" height="25.000000" viewBox="0 0 25 25" fill="none" xmlns="http://www.w3.org/2000/svg" xmlns:xlink="http://www.w3.org/1999/xlink">
	<desc>
			Created with Pixso.
	</desc>
	<defs>
		<clipPath id="clip4_137">
			<rect width="25.000000" height="25.000000" fill="white"/>
		</clipPath>
	</defs>
	<g clip-path="url(#clip4_137)">
		<path d="M17.1875 10.4169L7.8125 10.4169" stroke="#5051F9"/>
		<path d="M7.8125 18.2294L17.1875 18.2294" stroke="#5051F9"/>
		<path d="M17.924 18.5344C18.1194 18.7298 18.2291 18.9948 18.2291 19.271L18.2291 22.9168C18.2291 23.3312 18.0645 23.7287 17.7715 24.0217C17.4784 24.3147 17.0809 24.4793 16.6666 24.4793L8.33325 24.4793C7.91882 24.4793 7.52136 24.3147 7.22839 24.0217C6.93542 23.7287 6.77075 23.3312 6.77075 22.9168L6.77075 19.271C6.77075 18.9948 6.88049 18.7298 7.07581 18.5344C7.27124 18.3391 7.53613 18.2293 7.81238 18.2293L7.81238 10.4168C7.53613 10.4168 7.27124 10.3071 7.07581 10.1118C6.88049 9.91638 6.77075 9.65143 6.77075 9.37518L6.77075 7.29184C6.77075 6.46304 7.09998 5.66818 7.68604 5.08212C8.27209 4.49609 9.06689 4.16684 9.89575 4.16684L15.1041 4.16684C15.9329 4.16684 16.7278 4.49609 17.3138 5.08212C17.8999 5.66818 18.2291 6.46304 18.2291 7.29184L18.2291 9.37518C18.2291 9.65143 18.1194 9.91638 17.924 10.1118C17.7286 10.3071 17.4637 10.4168 17.1874 10.4168L17.1874 18.2293C17.4637 18.2293 17.7286 18.3391 17.924 18.5344Z" stroke="#5051F9"/>
		<path d="M15.1041 4.1669L15.1041 1.56271C15.1041 1.28647 14.9944 1.02151 14.799 0.826141C14.6036 0.630798 14.3387 0.521057 14.0624 0.521057L10.9374 0.521057C10.6611 0.521057 10.3962 0.630798 10.2008 0.826141C10.0055 1.02151 9.89575 1.28647 9.89575 1.56271L9.89575 4.1669" stroke="#5051F9"/>
	</g>
</svg>
